# File created by Blade
# Date/Time:  Thu Sep 25 17:14:50 2014
# Frame Rate: 120.000 fps
#------------------------------------------------------
:FULLY-SPECIFIED
:DEGREES
395
root 53.130296 33.306867 -3.525395 173.247623 -81.563815 -164.960535
Spine -8.993674 12.363390 3.886438
Head 13.106854 -8.567059 1.846994
LeftShoulder -14.827700 17.588363 36.814001
LeftArm 112.211642 -72.169382 -66.047634
LeftForeArm -21.018591 0.000000 18.949137
LeftHand -15.966271 -0.000000 -3.430278
LeftHandThumb1 -26.253704 0.000000 33.147579
RightShoulder -22.416772 34.019846 -60.961524
RightArm 61.131328 34.167582 59.486977
RightForeArm 10.760900 -0.000000 39.120648
RightHand -6.285594 -0.000000 -10.609143
RightHandThumb1 -24.326973 -0.000000 -32.862282
LeftUpLeg -43.394741 12.968259 -4.958328
LeftLeg 2.851663 -0.000000 -0.000000
LeftFoot 42.300655 24.652316 -13.657732
LeftToeBase 33.692511 -0.000000 -0.000000
RightUpLeg -1.354801 -11.834085 6.395853
RightLeg 0.869974 -0.000000 -0.000000
RightFoot -11.983426 4.457896 -2.411598
RightToeBase 3.450038 -0.000000 -0.000000
396
root 53.084952 33.310476 -3.525406 173.929671 -81.463968 -165.642282
Spine -8.994945 12.347074 3.836219
Head 13.102289 -8.493536 1.826114
LeftShoulder -14.829347 17.455875 36.856093
LeftArm 111.915266 -72.241919 -65.776204
LeftForeArm -21.196939 -0.000000 18.893346
LeftHand -15.888520 -0.000000 -3.514411
LeftHandThumb1 -26.253704 0.000000 33.147579
RightShoulder -22.585910 34.351586 -61.210296
RightArm 60.873674 33.930883 59.494818
RightForeArm 10.359240 -0.000000 39.222613
RightHand -6.425882 -0.000000 -10.573720
RightHandThumb1 -24.326973 -0.000000 -32.862282
LeftUpLeg -43.660427 13.017943 -5.038429
LeftLeg 2.815456 -0.000000 -0.000000
LeftFoot 42.292093 24.619274 -13.632015
LeftToeBase 33.755976 -0.000000 -0.000000
RightUpLeg -1.253733 -11.754206 6.277490
RightLeg 0.823360 -0.000000 -0.000000
RightFoot -11.993206 4.540080 -2.256263
RightToeBase 3.413627 -0.000000 -0.000000
397
root 53.041017 33.311661 -3.526260 174.407455 -81.393797 -166.140717
Spine -8.978835 12.319267 3.807200
Head 13.108919 -8.373753 1.863749
LeftShoulder -14.772819 17.455597 36.862137
LeftArm 112.409668 -72.358037 -66.267472
LeftForeArm -21.271442 -0.000000 18.795079
LeftHand -16.033573 -0.000000 -3.389283
LeftHandThumb1 -26.253704 0.000000 33.147579
RightShoulder -23.050487 35.595472 -62.273141
RightArm 59.155855 33.266515 59.135692
RightForeArm 9.681446 -0.000000 39.630722
RightHand -6.656663 -0.000000 -10.609392
RightHandThumb1 -24.326973 -0.000000 -32.862282
LeftUpLeg -43.935178 13.130877 -5.176860
LeftLeg 2.762085 -0.000000 -0.000000
LeftFoot 42.235868 24.585821 -13.871562
LeftToeBase 31.086403 -0.000000 -0.000000
RightUpLeg -1.124261 -11.653261 6.175931
RightLeg 0.764466 -0.000000 -0.000000
RightFoot -12.020038 4.539711 -2.223963
RightToeBase 3.498123 -0.000000 -0.000000
398
root 52.993023 33.312950 -3.523826 175.069211 -81.327660 -166.816543
Spine -8.967877 12.242810 3.754868
Head 13.098082 -8.218076 1.895185
LeftShoulder -14.756592 17.421809 36.877535
LeftArm 112.747208 -72.429448 -66.613269
LeftForeArm -21.399631 0.000000 18.676319
LeftHand -15.967259 -0.000000 -3.499499
LeftHandThumb1 -26.253704 0.000000 33.147579
RightShoulder -23.152885 35.919880 -62.475327
RightArm 58.858851 33.065127 59.079950
RightForeArm 9.172607 0.000000 39.767254
RightHand -6.794530 -0.000000 -10.607678
RightHandThumb1 -24.326973 -0.000000 -32.862282
LeftUpLeg -44.204273 13.170713 -5.300608
LeftLeg 2.701644 -0.000000 -0.000000
LeftFoot 42.308723 24.555510 -13.601097
LeftToeBase 33.275548 -0.000000 -0.000000
RightUpLeg -0.993795 -11.565239 6.031936
RightLeg 0.703099 -0.000000 -0.000000
RightFoot -12.058634 4.613336 -2.188032
RightToeBase 3.588844 -0.000000 -0.000000
399
root 52.943663 33.314572 -3.522649 175.761596 -81.273949 -167.489931
Spine -8.990472 12.158859 3.688131
Head 13.101423 -8.108831 1.910022
LeftShoulder -14.768994 17.259498 36.928132
LeftArm 112.820592 -72.382190 -66.732152
LeftForeArm -21.493669 -0.000000 18.558604
LeftHand -16.061909 -0.000000 -3.422577
LeftHandThumb1 -26.253704 0.000000 33.147579
RightShoulder -24.542395 39.079877 -65.453561
RightArm 54.255930 31.405990 58.159215
RightForeArm 8.307070 0.000000 40.706513
RightHand -7.027446 -0.000000 -10.548484
RightHandThumb1 -24.326973 -0.000000 -32.862282
LeftUpLeg -44.519087 13.222612 -5.448201
LeftLeg 2.651274 -0.000000 -0.000000
LeftFoot 42.290998 24.583493 -13.703553
LeftToeBase 31.303007 -0.000000 -0.000000
RightUpLeg -0.900363 -11.497781 5.904316
RightLeg 0.641776 -0.000000 -0.000000
RightFoot -12.064475 4.630943 -2.097973
RightToeBase 3.559646 -0.000000 -0.000000
